<?xml version="1.0" encoding="utf-8"?>
<!-- Generator: Adobe Illustrator 26.2.1, SVG Export Plug-In . SVG Version: 6.00 Build 0)  -->
<svg version="1.1" id="Capa_1" xmlns="http://www.w3.org/2000/svg" xmlns:xlink="http://www.w3.org/1999/xlink" x="0px" y="0px"
	 viewBox="0 0 36 36" style="enable-background:new 0 0 36 36;" xml:space="preserve">
<style type="text/css">
	.st0{fill:#FFFFFF;stroke:#FFFFFF;stroke-width:0.75;stroke-miterlimit:10;}
</style>
<g id="Outline">
	<g>
		<g>
			<path class="st0" d="M25.4,13.7l0-0.4c-0.1-0.8-0.4-1.6-0.7-2.4c1.1,0.5,2.3,0.7,3.5,0.7c0.3,0,0.6-0.3,0.6-0.6
				c0-4.6-3.5-8.4-8-8.8c0.2-0.3,0.5-0.6,0.7-0.8l-0.9-0.8c-2.6,2.8-3.1,5.2-3.1,6.4c-3.5,0.3-6.3,2.9-6.7,6.4l0,0.4
				c-0.3,2-0.9,4-1.9,5.8C5.8,24.6,7.6,31.1,12.8,34c1.6,0.9,3.4,1.4,5.2,1.4h0.1c5.9,0,10.6-4.9,10.6-10.8c0-1.8-0.5-3.5-1.3-5
				C26.3,17.7,25.6,15.7,25.4,13.7L25.4,13.7z M27.5,10.5c-3.8-0.3-6.8-3.3-7.1-7.1C24.2,3.7,27.1,6.7,27.5,10.5L27.5,10.5z
				 M19.3,4.4c0.2,1.1,0.6,2.1,1.1,3C19.8,7.2,19.2,7,18.6,7c0-0.4,0.1-0.9,0.2-1.3C19,5.2,19.1,4.8,19.3,4.4z M24.7,31.4
				c-3.7,3.7-9.7,3.7-13.4,0c-3-3-3.7-7.7-1.6-11.4c1.1-1.9,1.8-4,2.1-6.2l0-0.4c0.5-3.4,3.6-5.8,7-5.3c2.8,0.4,4.9,2.5,5.3,5.3
				l0,0.4c0.3,2.2,1,4.3,2.1,6.3C28.3,23.8,27.7,28.4,24.7,31.4L24.7,31.4z"/>
		</g>
		<g>
			<path class="st0" d="M18.1,35.4L18.1,35.4c-1.9,0-3.7-0.5-5.3-1.4c-1.3-0.7-2.3-1.6-3.2-2.8c-0.8-1.1-1.5-2.3-1.8-3.7
				c-0.4-1.3-0.5-2.7-0.3-4.1c0.2-1.4,0.6-2.8,1.3-4c1-1.8,1.7-3.7,1.9-5.8l0-0.4c0.1-0.8,0.4-1.7,0.8-2.4c0.4-0.7,0.9-1.4,1.5-2
				c0.6-0.6,1.3-1,2-1.4C15.7,7.2,16.5,7,17.4,7c0-0.6,0.2-1.5,0.6-2.6c0.5-1.3,1.4-2.6,2.5-3.8l0,0l0,0l0.9,0.8l0,0
				c-0.2,0.3-0.5,0.5-0.7,0.8c2.2,0.2,4.2,1.2,5.7,2.9s2.3,3.8,2.3,6c0,0.3-0.3,0.6-0.6,0.6h0c-1.2,0-2.4-0.2-3.5-0.7
				c0.4,0.7,0.6,1.5,0.7,2.4l0,0.4c0.3,2,0.9,4,2,5.9c0.8,1.5,1.3,3.3,1.3,5c0,1.4-0.3,2.8-0.8,4.2c-0.5,1.3-1.3,2.4-2.3,3.4
				c-1,1-2.1,1.8-3.4,2.3C20.9,35.1,19.5,35.4,18.1,35.4z M20.5,0.6c-2.5,2.7-3,5.1-3.1,6.4l0,0l0,0c-3.4,0.3-6.3,3-6.7,6.4l0,0.4
				c-0.1,1-0.4,2-0.7,3c-0.3,1-0.7,1.9-1.2,2.8c-1.4,2.5-1.7,5.4-1,8.1c0.8,2.7,2.6,5,5.1,6.4c1.6,0.9,3.4,1.4,5.2,1.4h0.1
				c5.9,0,10.6-4.9,10.6-10.8c0-1.8-0.5-3.5-1.3-5c-1-1.9-1.7-3.9-2-5.9l0-0.4c-0.1-0.8-0.4-1.6-0.7-2.4l0,0l0,0
				c1.1,0.5,2.3,0.7,3.5,0.7h0c0.3,0,0.6-0.3,0.6-0.6c0-4.6-3.4-8.4-8-8.8h0l0,0c0.2-0.3,0.5-0.6,0.7-0.8L20.5,0.6z M18,34.2
				c-1.2,0-2.4-0.2-3.5-0.7c-1.2-0.5-2.2-1.2-3.1-2.1c-0.7-0.7-1.4-1.6-1.8-2.5C9,28,8.7,27,8.6,26c-0.1-1-0.1-2,0.1-3
				c0.2-1,0.6-2,1.1-2.9c1.1-1.9,1.8-4,2.1-6.2l0-0.4c0.1-0.8,0.4-1.6,0.8-2.3c0.4-0.7,0.9-1.3,1.6-1.8c0.6-0.5,1.4-0.8,2.1-1.1
				c0.8-0.2,1.6-0.3,2.5-0.2c0.7,0.1,1.3,0.3,1.9,0.6c0.6,0.3,1.1,0.7,1.6,1.2c0.5,0.5,0.9,1,1.2,1.6c0.3,0.6,0.5,1.3,0.6,1.9l0,0.4
				c0.3,2.2,1,4.3,2.1,6.3c0.5,0.9,0.8,1.9,1,2.9c0.2,1,0.2,2,0,3c-0.1,1-0.4,2-0.9,2.9c-0.5,0.9-1.1,1.8-1.8,2.5l0,0
				c-0.9,0.9-2,1.6-3.1,2.1C20.5,34,19.3,34.2,18,34.2C18,34.2,18,34.2,18,34.2z M18,8.1c-3,0-5.7,2.3-6.1,5.4l0,0.4
				c-0.1,1.1-0.4,2.2-0.7,3.2c-0.3,1-0.8,2.1-1.3,3c-2.1,3.7-1.4,8.4,1.6,11.4c1.8,1.8,4.3,2.8,6.7,2.8c2.4,0,4.9-0.9,6.7-2.8l0,0
				c2.9-3,3.6-7.6,1.6-11.2c-1.1-2-1.8-4.2-2.1-6.3l0-0.4c-0.4-2.7-2.6-4.9-5.3-5.3C18.5,8.1,18.3,8.1,18,8.1z M27.5,10.5L27.5,10.5
				c-0.9-0.1-1.8-0.3-2.7-0.7c-0.8-0.4-1.5-0.9-2.2-1.5S21.5,6.9,21.1,6c-0.4-0.8-0.6-1.7-0.7-2.6v0h0c0.9,0.1,1.8,0.3,2.6,0.7
				c0.8,0.4,1.5,0.9,2.2,1.5s1.2,1.4,1.5,2.2C27.1,8.7,27.4,9.5,27.5,10.5L27.5,10.5L27.5,10.5z M20.4,3.4c0.3,3.8,3.3,6.7,7.1,7.1
				C27.1,6.7,24.2,3.7,20.4,3.4z M20.5,7.4L20.5,7.4C19.9,7.2,19.2,7,18.6,7h0v0c0-0.4,0.1-0.9,0.2-1.3c0.1-0.4,0.3-0.9,0.5-1.3l0,0
				v0C19.5,5.5,19.9,6.5,20.5,7.4L20.5,7.4z M18.6,7c0.6,0,1.2,0.2,1.8,0.4c-0.6-0.9-0.9-1.9-1.1-3c-0.2,0.4-0.4,0.8-0.5,1.3
				C18.7,6.1,18.6,6.5,18.6,7z"/>
		</g>
	</g>
	<g>
		<g>
			<path class="st0" d="M18,30.6c-3.3,0-5.9-2.7-5.9-5.9s2.7-5.9,5.9-5.9s5.9,2.7,5.9,5.9C23.9,28,21.3,30.6,18,30.6z M18,20
				c-2.6,0-4.7,2.1-4.7,4.7s2.1,4.7,4.7,4.7s4.7-2.1,4.7-4.7S20.6,20,18,20z"/>
		</g>
		<g>
			<path class="st0" d="M18,30.6L18,30.6c-0.8,0-1.6-0.2-2.3-0.5c-0.7-0.3-1.3-0.7-1.9-1.3c-0.5-0.5-1-1.2-1.3-1.9
				c-0.3-0.7-0.5-1.5-0.5-2.3c0-0.8,0.2-1.6,0.5-2.3c0.3-0.7,0.7-1.3,1.3-1.9c0.5-0.5,1.2-1,1.9-1.3c0.7-0.3,1.5-0.5,2.3-0.5
				c0.8,0,1.6,0.2,2.3,0.5c0.7,0.3,1.3,0.7,1.9,1.3c0.5,0.5,1,1.2,1.3,1.9c0.3,0.7,0.5,1.5,0.5,2.3c0,0.8-0.2,1.6-0.5,2.3
				c-0.3,0.7-0.7,1.3-1.3,1.9c-0.5,0.5-1.2,1-1.9,1.3C19.6,30.5,18.8,30.6,18,30.6z M18,18.8c-3.3,0-5.9,2.7-5.9,5.9
				s2.7,5.9,5.9,5.9s5.9-2.7,5.9-5.9S21.3,18.8,18,18.8z M18,29.5c-0.6,0-1.3-0.1-1.8-0.4c-0.6-0.2-1.1-0.6-1.5-1
				c-0.4-0.4-0.8-0.9-1-1.5c-0.2-0.6-0.4-1.2-0.4-1.8s0.1-1.3,0.4-1.8c0.2-0.6,0.6-1.1,1-1.5c0.4-0.4,0.9-0.8,1.5-1
				c0.6-0.3,1.2-0.4,1.8-0.4l0,0c0.6,0,1.3,0.1,1.8,0.4c0.6,0.2,1.1,0.6,1.5,1c0.4,0.4,0.8,0.9,1,1.5c0.2,0.6,0.4,1.2,0.4,1.8
				s-0.1,1.3-0.4,1.8c-0.2,0.6-0.6,1.1-1,1.5c-0.4,0.4-0.9,0.8-1.5,1C19.3,29.3,18.6,29.5,18,29.5z M18,20c-2.6,0-4.7,2.1-4.7,4.7
				s2.1,4.7,4.7,4.7s4.7-2.1,4.7-4.7C22.7,22.1,20.6,20,18,20L18,20z"/>
		</g>
	</g>
</g>
</svg>
